PathFileType	4	(X/Y/Z)	C:/Users/beibeiliu/ov580/test_trc/User2\sequence.30_training_dense_left.trc
DataRate	CameraRate	NumFrames	NumMarkers	Units	OrigDataRate	OrigDataStartFrame	OrigNumFrames
120	120	23	19	mm	120	53	78
Frame#	Time	ThumbCMC			ThumbMCP			ThumbIP			ThumbTip			IndexMCP			IndexPIP			IndexTip			MiddleMCP			MiddlePIP			MiddleTip			RingMCP			RingPIP			RingTip			PinkyMCP			PinkyPIP			PinkyTip			BackHand1			BackHand2			BackHand3	
		X0	Y0	Z0	X1	Y1	Z1	X2	Y2	Z2	X3	Y3	Z3	X4	Y4	Z4	X5	Y5	Z5	X6	Y6	Z6	X7	Y7	Z7	X8	Y8	Z8	X9	Y9	Z9	X10	Y10	Z10	X11	Y11	Z11	X12	Y12	Z12	X13	Y13	Z13	X14	Y14	Z14	X15	Y15	Z15	X16	Y16	Z16	X17	Y17	Z17	X18	Y18	Z18	
52	0.433333	-215.262	124.196	20.0135	-188.987	148.986	1.6345	-156.116	139.254	-26.833	-144.932	111.058	-26.4439	-215.934	126.436	-60.6961	-212.087	141.954	-85.6395	-201.116	160.274	-108.4	-197.725	107.292	-73.4959	-194.243	119.394	-98.9178	-182.949	135.609	-127.746	-175.365	93.7219	-61.791	-170.059	104.87	-89.6487	-158.513	116.847	-115.339	-152.855	87.7918	-45.5647	-142.851	97.7289	-69.9498	-135.489	99.8691	-93.6032	-190.306	75.6042	-14.1749	-198.68	56.5354	15.8461	-224.692	88.3621	-3.19542	
53	0.441667	-217.857	125.863	22.3001	-189.157	148.855	-3.73834	-157.658	139.287	-26.3804	-147.979	111.65	-24.6892	-220.551	124.978	-60.1695	-217.889	141.522	-86.4157	-211.218	157.079	-106.586	-205.655	107.587	-72.7933	-198.989	116.95	-103.321	-188.459	129.305	-130.333	-184.398	94.6392	-64.8201	-175.233	100.143	-89.8524	-170.036	111.946	-115.052	-160.782	87.0162	-46.9917	-152.177	95.0711	-71.7585	-147.349	95.6949	-93.7822	-191.826	69.6667	-11.667	-200.731	57.9124	14.2223	-227.283	88.0676	-2.58866	
54	0.45	-215.004	118.276	12.139	-186.197	136.022	-8.7002	-157.921	122.324	-34.1555	-151.442	93.529	-33.5362	-223.459	116.601	-66.4141	-221.033	132.353	-95.0604	-214.169	144.743	-114.335	-208.879	93.0478	-77.5627	-205.746	106.169	-109.708	-197.818	116.539	-138.36	-188.928	77.4424	-70.5755	-182.768	83.0204	-100.416	-179.19	94.8521	-124.293	-168.058	70.3701	-58.0073	-161.07	75.6444	-80.3382	-158.653	77.6429	-103.462	-199.838	59.1754	-20.1001	-206.086	47.9157	10.4813	-229.878	81.9785	-4.87031	
55	0.458333	-199.608	98.3509	4.79132	-168.322	105.439	-22.801	-151.534	81.2587	-44.2487	-152.998	50.0608	-47.9984	-213.557	97.2029	-72.9381	-208.073	108.846	-101.557	-201.396	117.333	-126.583	-210.022	74.4783	-84.2051	-205.933	82.1074	-116.682	-197.534	83.0125	-143.819	-197.885	53.1961	-75.9942	-191.574	53.2941	-109.51	-186.503	59.2524	-133.28	-178.992	34.676	-64.3532	-173.322	38.9263	-86.1976	-171.484	34.516	-114.297	-209.35	42.4709	-24.7129	-219.636	35.9309	3.12325	-230.219	69.568	-8.86039	
56	0.466667	-179.227	69.7004	-7.09043	-150.742	59.6426	-34.8276	-146.889	28.3926	-57.7413	-161.804	1.5219	-56.2882	-195.984	69.1924	-84.2643	-188.766	74.1979	-110.252	-183.802	76.6815	-135.07	-204.921	44.3064	-93.1745	-199.933	43.732	-124.816	-196.72	40.3512	-154.796	-202.837	19.8726	-81.5355	-199.257	15.5887	-113.679	-195.685	18.8793	-140.925	-195.799	-1.08391	-64.292	-191.405	-4.49335	-88.6096	-195.467	-10.5874	-114.631	-217.384	17.14	-33.1319	-229.266	19.6836	1.87992	-217.097	57.3016	-19.1225	
57	0.475	-166.443	30.2559	-9.78325	-149.042	10.4567	-39.7591	-164.761	-18.7192	-61.9448	-186.423	-33.1954	-59.15	-183.045	36.1866	-92.2873	-179.16	35.3121	-117.813	-174.526	37.1786	-144.225	-207.96	18.9718	-96.4232	-206.516	16.8955	-123.848	-207.294	13.7874	-159.472	-217.977	-1.20447	-88.6369	-219.327	-4.4722	-114.412	-218.055	-7.49527	-139.614	-222.448	-25.3244	-67.1574	-225.442	-32.8531	-93.1347	-232.521	-33.7966	-112.674	-225.233	3.54297	-31.8427	-230.104	16.7647	-2.16315	-207.146	38.2452	-21.3645	
58	0.483333	-163.056	8.32777	-14.1252	-160.06	-14.9983	-46.1449	-180.825	-34.0223	-69.1468	-212.161	-39.7556	-66.9395	-184.714	24.7069	-90.889	-180.486	25.123	-117.768	-177.066	27.0474	-149.086	-213.707	18.3056	-94.0846	-213.915	20.3548	-129.837	-216.496	21.6963	-160.469	-232.346	2.43441	-84.9703	-237.705	1.24394	-114.605	-238.618	1.17267	-139.816	-245.026	-20.5213	-68.7713	-249.611	-24.5416	-92.1788	-261.242	-23.2497	-115.176	-228.916	8.58497	-35.4059	-231.741	15.89	-0.335571	-202.685	30.1048	-23.4217	
59	0.491667	-170.308	0.858825	-17.1828	-175.388	-18.2667	-52.5479	-202.931	-28.1197	-74.8652	-232.899	-26.1797	-68.5923	-187.898	32.0413	-94.6138	-182.274	34.611	-121.362	-184.5	35.6978	-144.914	-220.682	33.2288	-96.0706	-219.804	37.9726	-123.698	-226.703	42.2526	-155.193	-243.441	21.3295	-86.7877	-247.77	25.0286	-114.082	-255.153	29.5754	-142.063	-259.252	-1.57719	-66.8679	-272.057	-0.830948	-94.2274	-279.855	3.82341	-111.137	-239.714	19.1709	-29.1359	-236.513	25.1061	0.826038	-200.138	34.0804	-22.3762	
60	0.5	-183.977	3.68426	-21.0552	-192.923	-9.03919	-57.4254	-226.89	-10.834	-81.3549	-251.391	-6.14614	-70.5833	-202.825	43.3409	-87.9421	-199.765	49.6136	-116.241	-199.419	56.124	-147.143	-227.714	51.6812	-90.9472	-232.313	59.1591	-118.198	-233.674	72.2399	-151.016	-256.043	42.8196	-81.1984	-264.294	50.7157	-106.765	-266.554	59.2044	-132.044	-273.705	22.552	-64.957	-288.387	27.6587	-85.8345	-298.827	39.7391	-100.95	-247.471	34.105	-30.8679	-241.35	33.8897	5.26873	-213.496	38.2568	-19.7039	
61	0.508333	-193.776	10.0127	-25.5292	-203.365	0.598014	-63.2942	-235.378	1.90452	-84.5059	-266.007	10.0401	-73.7855	-213.516	59.5068	-84.9408	-209.06	69.6051	-113.22	-204.251	76.9836	-140.516	-236.528	69.7372	-86.8076	-240.317	83.4143	-114.98	-241.577	97.339	-142.9	-266.224	59.6124	-75.0245	-269.577	73.1716	-100.282	-276.885	85.5749	-126.459	-287.1	41.4359	-61.5465	-297.339	51.361	-82.2137	-305.365	64.399	-98.0029	-257.319	44.4037	-28.092	-249.685	40.1717	4.26925	-215.223	47.4969	-16.1316	
62	0.516667	-191.637	7.59218	-24.8938	-201.708	2.39737	-65.1648	-230.428	3.58745	-83.6957	-260.662	12.5197	-73.2794	-205.185	63.5644	-84.9274	-199.706	73.575	-108.374	-198.322	82.9661	-139.113	-230.094	72.0538	-82.2824	-228.704	89.3604	-112.147	-234.039	103.66	-138.369	-259.358	64.476	-75.8073	-260.492	78.2672	-97.5375	-266.331	92.6639	-126.15	-280.567	43.8184	-61.8649	-292.42	55.2857	-82.4559	-302.072	71.4571	-98.2804	-250.327	44.5518	-23.1721	-244.647	37.9844	4.86715	-214.043	44.8328	-16.1542	
63	0.525	-183.407	0.467368	-22.7389	-189.421	-8.89576	-61.2844	-219.92	-7.80668	-81.3703	-248.874	-1.02427	-71.2779	-194.372	48.7329	-86.5068	-188.106	57.8655	-114.163	-183.532	64.9578	-141.635	-221.257	58.4454	-88.1225	-218.846	69.8346	-115.193	-218.36	81.746	-146.198	-247.712	48.985	-76.6691	-250.636	62.0497	-104.36	-256.25	71.7786	-130.849	-267.893	30.1373	-62.7479	-283.16	38.5501	-84.8934	-289.528	52.472	-106.102	-240.239	35.3039	-26.6521	-240.953	32.8958	6.76093	-204.495	39.304	-18.8849	
64	0.533333	-175.113	5.08469	-18.1345	-173.771	-14.774	-52.4962	-207.701	-21.5173	-77.8012	-234.04	-19.6034	-65.3827	-190.186	35.8377	-92.33	-183.716	39.2381	-119.818	-178.495	41.1962	-143.008	-215.431	39.8468	-92.726	-217.692	44.2564	-125.526	-219.936	48.745	-156.211	-245.41	29.19	-82.8186	-248.498	33.3616	-108.827	-251.035	35.8906	-139.552	-259.421	8.73335	-65.6096	-273.745	9.89925	-88.5496	-286.165	14.1187	-107.366	-237.078	26.1924	-28.0571	-233.729	28.5144	3.67093	-200.24	35.483	-20.1069	
65	0.541667	-169.313	23.0659	-14.2874	-162.403	-0.972222	-46.9102	-180.512	-24.7132	-63.6552	-211.323	-31.8925	-58.752	-188.129	32.6858	-89.063	-182.504	30.5017	-120.196	-177.902	30.6596	-148.325	-212.074	23.6782	-96.5672	-214.28	18.1778	-128.39	-215.725	14.5811	-156.293	-230.929	4.98867	-86.952	-235.177	-0.169988	-114.242	-237.986	-5.70492	-141.552	-242.83	-17.119	-67.7784	-252.782	-28.0223	-87.6252	-257.882	-27.1409	-111.721	-232.957	14.7041	-28.5309	-238.76	23.9557	-2.38623	-208.63	40.4667	-22.1996	
66	0.55	-176.406	48.0739	-14.4296	-152.252	26.2191	-40.2756	-159.221	-8.81342	-56.5713	-183.19	-30.1098	-51.9287	-189.839	38.0231	-90.2193	-181.617	35.1732	-119.164	-173.597	31.6745	-146.937	-205.16	13.6806	-98.403	-198.447	10.3023	-124.456	-192.494	-1.49386	-157.54	-212.292	-9.6926	-86.0746	-211.018	-20.2506	-110.855	-204.107	-25.5283	-135.907	-213.947	-29.6344	-60.0347	-210.856	-42.3354	-83.8822	-214.776	-54.4719	-104.742	-227.142	7.66557	-31.3806	-237.199	14.0802	-5.90208	-219.499	43.0645	-27.0738	
67	0.558333	-197.221	65.8394	-17.8016	-161.627	54.8662	-36.4399	-147.092	19.5038	-50.7273	-162.839	-8.07608	-40.3103	-193.316	38.9117	-91.9426	-182.178	39.5425	-118.022	-171.688	37.1138	-144.033	-192.996	12.3399	-94.8468	-180.994	6.56305	-124.114	-168.882	-2.15328	-149.864	-189.662	-8.41815	-81.5102	-177.888	-17.4521	-107.597	-166.376	-21.9854	-131.781	-181.466	-25.1621	-58.5605	-170.709	-36.2111	-78.6683	-165.204	-44.8732	-101.213	-217.749	1.53453	-32.389	-231.804	6.93442	-8.78907	-228.586	37.5352	-32.046	
68	0.566667	-218.541	71.6176	-19.8075	-179.42	77.0384	-37.2312	-153.921	52.0282	-44.1981	-149.888	19.6737	-36.2475	-195.67	44.4778	-95.0853	-181.76	43.8904	-121.708	-167.199	41.3365	-141.542	-183.9	19.222	-93.3676	-167.158	16.6572	-117.349	-151.417	15.024	-144.032	-173.663	6.8617	-77.1679	-156.362	2.06369	-99.9656	-141.51	-2.03466	-121.254	-160.517	-5.45398	-51.8054	-146.228	-7.29196	-72.85	-138.119	-12.3208	-93.0057	-204.801	4.95766	-34.2375	-224.97	0.0525364	-8.51614	-230.42	30.5098	-34.8156	
69	0.575	-232.931	68.4471	-19.8102	-198.852	85.3827	-40.0352	-164.73	71.4005	-47.7668	-151.69	44.6774	-37.9121	-204.761	49.8332	-97.0426	-187.355	49.7809	-121.329	-171.745	49.6912	-141.643	-181.288	29.9627	-95.6901	-165.76	30.4721	-117.393	-147.966	32.0797	-145.597	-166.837	20.9852	-77.3241	-152.381	21.3235	-97.713	-139.616	25.354	-122.902	-155.67	16.4498	-54.5501	-143.296	20.5986	-74.3238	-133.617	16.6082	-91.7604	-201.268	9.13398	-30.6977	-219.058	1.97872	-4.28668	-233.344	27.9385	-34.5536	
70	0.583333	-245.877	69.0419	-21.493	-217.251	88.4505	-40.4286	-180.166	82.805	-52.488	-162.346	57.8902	-44.958	-217.471	50.5528	-98.1039	-206.784	52.9764	-120.105	-185.529	53.5929	-146.074	-195.135	39.791	-97.5435	-177.445	42.3282	-121.951	-164.905	47.6713	-149.858	-174.963	32.1826	-81.8284	-162.573	39.0126	-108.484	-149.758	42.4659	-133.939	-161.153	30.7818	-61.6114	-149.432	35.9761	-78.7458	-144.392	38.9366	-105.15	-200.435	14.9999	-35.0978	-220.21	7.68367	-7.97552	-238.655	27.1341	-34.1109	
71	0.591667	-254.554	66.1421	-24.2046	-232.5	91.9446	-43.62	-196.944	84.965	-58.1698	-173.264	64.2603	-54.0279	-228.373	47.9661	-98.03	-220.234	51.2674	-125.367	-206.542	52.9557	-150.79	-210.049	39.4534	-101.238	-199.035	46.3614	-129.128	-185.422	50.0712	-159.905	-190.039	38.166	-91.4894	-180.707	42.4597	-111.305	-170.69	47.3223	-142.543	-174.418	35.9878	-64.7645	-166.296	43.4646	-90.4123	-162.929	43.4273	-115.515	-207.266	18.1103	-40.0844	-220.849	6.79316	-11.0318	-248.271	26.5142	-36.5503	
72	0.6	-266.564	64.2898	-19.9349	-246.02	87.6305	-48.0437	-212.616	84.7829	-69.2316	-190.69	61.8067	-62.7501	-248.279	41.4422	-100.195	-241.71	42.3021	-125.645	-235.061	43.8199	-151.561	-226.52	33.5571	-107.147	-217.537	38.1122	-136.41	-210.827	39.9573	-163.592	-207.099	32.1218	-96.6273	-202.471	36.5001	-122.424	-199.185	40.2162	-150.818	-193.132	34.1213	-73.9559	-184.655	38.2806	-98.4189	-181.383	35.034	-122.551	-218.188	13.2784	-40.5444	-229.951	4.75864	-9.58248	-256.436	21.7472	-32.7287	
73	0.608333	-276.445	60.0618	-20.5324	-259.21	77.2795	-53.8855	-227.749	71.6166	-77.9179	-205.438	54.4243	-75.2842	-272.029	30.7913	-98.1226	-269.972	28.4969	-127.326	-259.921	24.9257	-154.879	-252.626	21.1221	-106.295	-245.736	20.764	-134.858	-240.327	18.5925	-169.01	-231.736	18.7094	-97.8855	-228.369	21.2532	-127.924	-225.785	21.067	-156.365	-211.947	21.4819	-83.5523	-205.523	22.5532	-106.784	-210.801	20.7587	-131.77	-236.762	9.13424	-44.1673	-237.097	1.35939	-13.1177	-269.765	17.5926	-32.3525	
74	0.616667	-284.62	56.2423	-22.5379	-271.776	73.0713	-59.7998	-243.783	59.1243	-85.4623	-223.257	39.889	-85.7481	-292.758	19.8198	-95.3197	-292.396	13.6465	-122.896	-291.934	9.16177	-150.992	-277.006	6.07836	-105.623	-273.779	3.04618	-134.177	-275.278	-0.715569	-163.772	-256.451	4.24963	-95.9754	-253.921	-0.272836	-128.03	-255.008	1.35704	-151.666	-231.487	5.62692	-84.2331	-232.944	7.17963	-106.545	-239.095	1.99963	-131.513	-249.597	1.18259	-39.2323	-256.54	-1.95176	-8.26684	-286.212	14.8744	-27.0657	
